# xmcd
#
# Track frame offsets:
# 150
# 15912
# 25900
# 40571
# 54836
# 61575
# 82610
# 86974
# 101064
# 115374
#
# Disc length: 1624 seconds
#
#
# Revision: 0
# Processed by: cddbd v1.5.2PL0 Copyright (c) Steve Scherf et al.
# Submitted via: FreeRIP 2.944 
#
DISCID=6506560a
DTITLE=Doc Watson - Rambling hobo - cd2
DYEAR=2009
DGENRE=Acoustic
TTITLE0=Doc Watson - Country blues
TTITLE1=Doc Watson - Windy and warm
TTITLE2=Doc Watson - Lee Highway blues
TTITLE3=Doc Watson - Deep river blues
TTITLE4=Doc Watson - Black Mountain rag
TTITLE5=Doc Watson - Froggie went a-courtin'
TTITLE6=Doc Watson - Rambling hobo
TTITLE7=Doc Watson - My home's across the Blue Ridge Mountain
TTITLE8=Doc Watson - Maggie Walker blues
TTITLE9=Doc Watson - Way downtown
EXTD=CD2/3
EXTT0=
EXTT1=
EXTT2=
EXTT3=
EXTT4=
EXTT5=
EXTT6=
EXTT7=
EXTT8=
EXTT9=
PLAYORDER=
